<svg xmlns="http://www.w3.org/2000/svg" viewBox="0 0 184.31 135.62"><defs><style>.cls-1{fill:#343131;stroke:#f5f5f5;stroke-miterlimit:10;stroke-width:5px;}</style></defs><g id="Layer_2" data-name="Layer 2"><g id="Layer_1-2" data-name="Layer 1"><path class="cls-1" d="M169.1,63.68S166,78.41,161.35,84.56a49,49,0,0,1-25.81,17.33l-17.76,5V87.14"/><path class="cls-1" d="M15.75,65.51s3.1,14.73,7.75,20.89a48.93,48.93,0,0,0,25.81,17.32l17.76,5L66.52,86Z"/><path class="cls-1" d="M175.75,42.5h0a36.6,36.6,0,0,1-23.91,34.14L117.78,89.48V61Z"/><path class="cls-1" d="M9.11,44.34h0A36.56,36.56,0,0,0,32.56,78.47L66,91.32V63.68Z"/><path class="cls-1" d="M92.15,133.12H34.4a16.16,16.16,0,0,1-16.16-15.9L18,101.31,32.67,115a6.85,6.85,0,0,0,4.67,1.84H47.57a3,3,0,0,1,3,3v1.66c0,6.68,15.83,10.39,15.81,8.33l-.07-15.31s.13-5.44.28-11.61c0-1.82,0-10.75-.12-16.8a25.58,25.58,0,0,0-4.79-14.89c-4.33-5.91-10-8.16-19.5-12.34C21.23,49.67,2.5,46.94,2.5,29V5.87l18.78,18a45.27,45.27,0,0,0,16.1,10,64.25,64.25,0,0,0,13.31,3.15C63,38.65,71.68,42.36,79.36,50h0c12.41,12.41,12.79,29.49,12.79,47l-.24,37.2"/><path class="cls-1" d="M91.91,133.12h58a16.16,16.16,0,0,0,16.15-15.9l.24-15.91L151.64,115a6.83,6.83,0,0,1-4.66,1.84H136.74a3,3,0,0,0-3.05,3v1.66c0,6.68-15.82,10.39-15.81,8.33l.08-15.31s-.14-5.44-.28-11.61c-.05-1.82,0-10.75.11-16.8a25.58,25.58,0,0,1,4.79-14.89c4.33-5.91,10-8.16,19.51-12.34,21-9.22,39.72-12,39.72-29.94V5.87L163,23.9a45.27,45.27,0,0,1-16.1,10,64.1,64.1,0,0,1-13.31,3.15c-12.26,1.56-21,5.27-28.67,12.95h0c-12.4,12.41-12.79,29.49-12.79,47l.25,37.2"/><path class="cls-1" d="M105.12,18.1H78.9a2.74,2.74,0,0,0-1.93.8L72.86,23a2.76,2.76,0,0,0,0,3.9l17.5,17.5a2.77,2.77,0,0,0,3.9,0l17.19-17.2a2.76,2.76,0,0,0,0-3.89l-4.38-4.37A2.72,2.72,0,0,0,105.12,18.1Z"/></g></g></svg>